<svg width="87" height="29" viewBox="0 0 87 29" fill="none" xmlns="http://www.w3.org/2000/svg">
<g clip-path="url(#clip0_237_381)">
<path d="M0.85714 27.8741C16.5433 13.9583 36.7292 4.1549 58.2943 6.23151C64.6088 6.83957 71.7506 9.5023 77.4913 12.3422C78.7044 12.9424 79.8029 13.7415 80.9153 14.5103C81.9312 15.2124 80.0476 6.71113 79.8814 5.71122C78.1049 -4.97934 79.7575 6.56861 80.96 10.5419C81.8932 13.6255 83.8647 16.7164 84.2996 19.9323C84.6498 22.5219 79.501 21.9797 77.7343 22.1487C75.9179 22.3225 64.1788 25.2264 65.7498 21.1943C68.5684 13.9603 74.0869 9.11761 78.9899 3.44984" stroke="black" stroke-width="2" stroke-linecap="round"/>
</g>
<defs>
<clipPath id="clip0_237_381">
<rect width="86.4788" height="29" fill="white" transform="translate(86.4785 29.0077) rotate(-179.995)"/>
</clipPath>
</defs>
</svg>
