<svg width="45" height="66" viewBox="0 0 45 66" fill="none" xmlns="http://www.w3.org/2000/svg">
<path d="M18.0417 65.1844L18.1114 65.1961C18.088 65.1931 18.0646 65.19 18.0417 65.1844ZM31.6281 0.669877C31.6515 0.672933 31.6749 0.675989 31.6978 0.681626C31.7207 0.687263 31.6281 0.669877 31.6281 0.669877ZM43.9966 59.125C41.8474 55.747 39.6064 52.4297 37.2758 49.1763C34.9454 45.9227 32.5271 42.7335 30.0229 39.6117C27.5189 36.4904 24.9303 33.4372 22.2597 30.4551C20.3448 28.318 18.3883 26.2177 16.3913 24.155C17.7871 23.1042 19.1825 22.056 20.5783 21.0052L24.48 18.0701C25.1813 17.5412 24.4545 16.5076 23.7506 17.0362C21.0002 19.106 18.2504 21.1733 15.5 23.2432C14.9916 22.7234 14.4859 22.2039 13.9706 21.6912C11.2206 18.9385 8.39746 16.257 5.50364 13.6491C9.79242 13.9174 14.0118 14.683 18.0366 15.9561C19.3524 16.3719 20.6459 16.843 21.9187 17.3619C22.6875 17.6717 23.2935 16.4754 22.5253 16.163C17.2391 14.0357 11.7091 11.8474 5.77132 11.759C4.11974 11.7343 2.46227 11.8653 0.817248 12.2047C0.381747 12.2937 0.104283 12.6871 0.231267 13.1014C1.65048 17.7944 3.07283 22.4853 4.49204 27.1783C4.89622 28.5145 5.30095 29.848 5.70253 31.1838C5.81932 31.5703 6.35517 31.7039 6.69717 31.4489C9.56432 29.2936 12.4289 27.1379 15.296 24.9825C16.9724 26.7128 18.6232 28.4636 20.2403 30.2471C22.9171 33.1987 25.513 36.221 28.0256 39.3112C30.537 42.403 32.9645 45.5615 35.3058 48.7839C37.658 52.0211 39.921 55.3227 42.0926 58.6855L42.8845 59.9185C43.3228 60.6068 44.4329 59.8104 43.9966 59.125ZM9.87516 27.478C8.82184 28.2712 7.76905 29.0619 6.71573 29.8551C5.37771 25.4378 4.04229 21.0208 2.70427 16.6035L1.71866 13.3486C2.15872 13.2761 2.60128 13.2172 3.04059 13.1738C3.07477 13.2658 3.13084 13.3553 3.22137 13.4334C6.20994 16.0814 9.12449 18.8075 11.9623 21.6093C12.7861 22.4222 13.6004 23.2418 14.4079 24.0684C12.8953 25.2047 11.3847 26.3439 9.87202 27.4802L9.87516 27.478Z" fill="black"/>
</svg>
