<svg width="64" height="64" viewBox="0 0 64 64" fill="none" xmlns="http://www.w3.org/2000/svg">
<path d="M36 50H28C27.4696 50 26.9609 50.2107 26.5858 50.5858C26.2107 50.9609 26 51.4696 26 52V56C26 57.5913 26.6321 59.1174 27.7574 60.2426C28.8826 61.3679 30.4087 62 32 62C33.5913 62 35.1174 61.3679 36.2426 60.2426C37.3679 59.1174 38 57.5913 38 56V52C38 51.4696 37.7893 50.9609 37.4142 50.5858C37.0391 50.2107 36.5304 50 36 50Z" fill="#434454"/>
<path d="M32 14C27.7565 14 23.6869 15.6857 20.6863 18.6863C17.6857 21.6869 16 25.7565 16 30C16 34.6 18.46 39.22 20.62 43.3C22.36 46.58 24 49.68 24 52C24 52.5304 24.2107 53.0391 24.5858 53.4142C24.9609 53.7893 25.4696 54 26 54H38C38.5304 54 39.0391 53.7893 39.4142 53.4142C39.7893 53.0391 40 52.5304 40 52C40 49.68 41.64 46.58 43.38 43.3C45.54 39.22 48 34.6 48 30C48 25.7565 46.3143 21.6869 43.3137 18.6863C40.3131 15.6857 36.2435 14 32 14Z" fill="#FFE082"/>
<path d="M32 10C31.4696 10 30.9609 9.78929 30.5858 9.41421C30.2107 9.03914 30 8.53043 30 8V4C30 3.46957 30.2107 2.96086 30.5858 2.58579C30.9609 2.21071 31.4696 2 32 2C32.5304 2 33.0391 2.21071 33.4142 2.58579C33.7893 2.96086 34 3.46957 34 4V8C34 8.53043 33.7893 9.03914 33.4142 9.41421C33.0391 9.78929 32.5304 10 32 10ZM8 34H4C3.46957 34 2.96086 33.7893 2.58579 33.4142C2.21071 33.0391 2 32.5304 2 32C2 31.4696 2.21071 30.9609 2.58579 30.5858C2.96086 30.2107 3.46957 30 4 30H8C8.53043 30 9.03914 30.2107 9.41421 30.5858C9.78929 30.9609 10 31.4696 10 32C10 32.5304 9.78929 33.0391 9.41421 33.4142C9.03914 33.7893 8.53043 34 8 34ZM13.62 16.44L10.78 13.62C10.4034 13.2434 10.1918 12.7326 10.1918 12.2C10.1918 11.6674 10.4034 11.1566 10.78 10.78C11.1566 10.4034 11.6674 10.1918 12.2 10.1918C12.7326 10.1918 13.2434 10.4034 13.62 10.78L16.44 13.62C16.6494 13.7993 16.8194 14.0199 16.9395 14.2681C17.0595 14.5162 17.127 14.7865 17.1376 15.0619C17.1482 15.3373 17.1018 15.612 17.0013 15.8686C16.9007 16.1253 16.7482 16.3584 16.5533 16.5533C16.3584 16.7482 16.1253 16.9007 15.8686 17.0013C15.612 17.1018 15.3373 17.1482 15.0619 17.1376C14.7865 17.127 14.5162 17.0595 14.2681 16.9395C14.0199 16.8194 13.7993 16.6494 13.62 16.44ZM60 34H56C55.4696 34 54.9609 33.7893 54.5858 33.4142C54.2107 33.0391 54 32.5304 54 32C54 31.4696 54.2107 30.9609 54.5858 30.5858C54.9609 30.2107 55.4696 30 56 30H60C60.5304 30 61.0391 30.2107 61.4142 30.5858C61.7893 30.9609 62 31.4696 62 32C62 32.5304 61.7893 33.0391 61.4142 33.4142C61.0391 33.7893 60.5304 34 60 34ZM47.56 16.44C47.1875 16.0653 46.9784 15.5584 46.9784 15.03C46.9784 14.5016 47.1875 13.9947 47.56 13.62L50.38 10.78C50.7566 10.4034 51.2674 10.1918 51.8 10.1918C52.3326 10.1918 52.8434 10.4034 53.22 10.78C53.5966 11.1566 53.8082 11.6674 53.8082 12.2C53.8082 12.7326 53.5966 13.2434 53.22 13.62L50.38 16.44C50.0053 16.8125 49.4984 17.0216 48.97 17.0216C48.4416 17.0216 47.9347 16.8125 47.56 16.44Z" fill="#FFE082"/>
</svg>
