<svg width="65" height="52" viewBox="0 0 65 52" fill="none" xmlns="http://www.w3.org/2000/svg">
<path d="M12.3636 0.881152L12.3115 0.928931C12.3283 0.912336 12.3451 0.89574 12.3636 0.881152ZM54.9274 51.2302C54.9107 51.2468 54.8939 51.2634 54.8754 51.278C54.8569 51.2926 54.9274 51.2302 54.9274 51.2302ZM1.20241 25.0845C5.18822 25.4634 9.18246 25.7326 13.1813 25.8919C17.1802 26.0516 21.1823 26.1021 25.1839 26.0437C29.1851 25.9849 33.1844 25.8176 37.1781 25.542C40.0407 25.3436 42.8999 25.0898 45.7542 24.781C45.726 26.5279 45.6961 28.2728 45.6678 30.0198L45.5874 34.9015C45.574 35.7798 46.836 35.8412 46.8513 34.961C46.9074 31.5192 46.9651 28.0795 47.0212 24.6378C47.7437 24.5559 48.4642 24.4758 49.1853 24.3842C53.0467 23.905 56.8968 23.3242 60.7322 22.6426C57.8862 25.8622 54.6903 28.7214 51.2134 31.1154C50.0771 31.8984 48.9108 32.6297 47.7195 33.3154C47.0028 33.7318 47.5746 34.9448 48.2931 34.5305C53.2188 31.6657 58.3423 28.6461 62.0593 24.0148C63.0933 22.7267 64.008 21.3383 64.7506 19.8317C64.9479 19.4334 64.8079 18.9728 64.403 18.8185C59.8279 17.0558 55.2526 15.2968 50.6776 13.5341C49.3749 13.0323 48.074 12.5325 46.7732 12.0289C46.3965 11.8836 45.9619 12.2244 45.953 12.6509C45.8927 16.2374 45.8343 19.8219 45.774 23.4084C43.3788 23.6684 40.9833 23.8956 38.5826 24.0762C34.6092 24.3755 30.6298 24.5676 26.6479 24.6521C22.6655 24.7348 18.682 24.7102 14.701 24.5784C10.7017 24.4461 6.70635 24.2039 2.71878 23.8519L1.25941 23.7195C0.446992 23.6426 0.393567 25.0078 1.20241 25.0845ZM47.1345 17.5979C47.1555 16.2794 47.1783 14.963 47.1994 13.6446C51.507 15.3021 55.8128 16.9614 60.1204 18.6188L63.2943 19.8404C63.0812 20.2322 62.8558 20.6176 62.6202 20.9909C62.5267 20.9614 62.4216 20.9507 62.3043 20.9741C58.3791 21.7059 54.4376 22.3313 50.4836 22.8497C49.3361 23.0004 48.1891 23.1396 47.0408 23.2691C47.0733 21.3774 47.1022 19.4856 47.1346 17.594L47.1345 17.5979Z" fill="black"/>
</svg>
