<svg width="44" height="55" viewBox="0 0 44 55" fill="none" xmlns="http://www.w3.org/2000/svg">
<path d="M-0.00192315 43.5212L0.0364065 43.5662C0.0230522 43.5517 0.00969385 43.5371 -0.00192315 43.5212ZM43.4703 9.50056C43.4837 9.51514 43.497 9.52971 43.5086 9.54564C43.5203 9.56158 43.4703 9.50056 43.4703 9.50056ZM19.8958 53.6248C20.3388 50.302 20.6904 46.9685 20.9501 43.6278C21.2101 40.287 21.379 36.9401 21.4566 33.5902C21.5339 30.2406 21.5204 26.8891 21.4161 23.539C21.3406 21.1376 21.2187 18.7373 21.0505 16.3394C22.5113 16.4182 23.9703 16.4984 25.431 16.5773L29.513 16.7989C30.2474 16.8379 30.3387 15.7839 29.6027 15.7433C26.7248 15.5876 23.8487 15.4305 20.9708 15.2748C20.9251 14.6677 20.8809 14.0623 20.8271 13.4561C20.5482 10.2102 20.184 6.97048 19.735 3.73986C22.3388 6.22289 24.63 8.98723 26.5231 11.972C27.1423 12.9475 27.7173 13.9465 28.2533 14.9649C28.579 15.5777 29.612 15.1376 29.2881 14.5234C27.0469 10.3116 24.6825 5.92928 20.9251 2.67287C19.88 1.76703 18.7473 0.95779 17.5102 0.288835C17.1832 0.111175 16.7934 0.213714 16.6515 0.547649C15.032 4.31983 13.4156 8.09227 11.7961 11.8644C11.335 12.9385 10.8758 14.0112 10.4133 15.0836C10.2798 15.3942 10.5512 15.7686 10.9078 15.7895C13.9066 15.9533 16.9039 16.1156 19.9027 16.2794C20.0446 18.2916 20.1589 20.3031 20.2341 22.3175C20.3589 25.6514 20.3937 28.987 20.3386 32.3213C20.2818 35.6559 20.1353 38.9881 19.8991 42.3147C19.662 45.6567 19.333 48.9919 18.9125 52.3171L18.7555 53.534C18.6655 54.2113 19.806 54.2992 19.8958 53.6248ZM15.0842 14.9574C13.9817 14.8981 12.881 14.8374 11.7786 14.7781C13.3016 11.2264 14.826 7.67627 16.349 4.12455L17.4714 1.50759C17.7925 1.69829 18.1078 1.89903 18.4128 2.10796C18.3851 2.18531 18.3728 2.27289 18.3887 2.37172C18.8769 5.67908 19.2755 8.99666 19.5842 12.3213C19.674 13.2861 19.7542 14.2502 19.8262 15.2151C18.2445 15.1281 16.6626 15.0441 15.0809 14.9571L15.0842 14.9574Z" fill="black"/>
</svg>
