<svg width="91" height="119" viewBox="0 0 91 119" fill="none" xmlns="http://www.w3.org/2000/svg">
<g clip-path="url(#clip0_93_273)">
<path d="M50.1682 6.52496C59.6633 19.2628 67.0282 30.5392 71.9426 45.5729C75.1347 55.3375 77.1741 70.9072 66.6251 77.2216C54.7999 84.2997 39.2981 88.7971 25.9393 92.0569C18.6813 93.8279 11.8914 96.1728 4.54694 97.4975C2.97809 97.7799 1.6099 98.6995 3.58556 96.6257C6.40962 93.6615 8.86523 90.4517 11.3106 87.1555C15.9643 80.8828 17.4701 79.6701 12.0767 88.2147C10.793 90.2485 5.69124 95.681 5.59054 98.4303C5.49699 100.991 12.9588 102.71 14.768 103.371C28.9559 108.562 18.9689 93.2029 16.6723 85.9117" stroke="black" stroke-width="2" stroke-linecap="round"/>
</g>
<defs>
<clipPath id="clip0_93_273">
<rect width="104.063" height="60.3568" fill="white" transform="matrix(-0.314504 0.949256 0.949256 0.314504 33.5225 0.550964)"/>
</clipPath>
</defs>
</svg>
